# xmcd CD database file
#
# Track frame offsets:
#	150
#	22937
#	38605
#	50860
#	68710
#	86557
#	98935
#	113055
#	127677
#	143355
#	164255
#	185520
#
# Disc length: 2649 seconds
#
# Revision: 0
# Processed by: cddbd v1.5.2PL0 Copyright (c) Steve Scherf et al.
# Submitted via: CDex 1.51
#
DISCID=910a570c
DTITLE=Story, Liz - Night Sky Essays
DYEAR=2005
DGENRE=New Age
TTITLE0=Aries
TTITLE1=Taurus
TTITLE2=Gemini
TTITLE3=Cancer
TTITLE4=Leo
TTITLE5=Virgo
TTITLE6=Libra
TTITLE7=Scorpio
TTITLE8=Sagittarius
TTITLE9=Capricorn
TTITLE10=Aquarius
TTITLE11=Pisces
EXTD=YEAR: 2005
EXTT0=
EXTT1=
EXTT2=
EXTT3=
EXTT4=
EXTT5=
EXTT6=
EXTT7=
EXTT8=
EXTT9=
EXTT10=
EXTT11=
PLAYORDER=
